{"title":"Khelein Hum Jee Jaan Sey 2010 DvDScr x264 400Mb - Henry","uid":6022184,"size":418053252,"categoryP":"video","categoryS":"movies","magnet":"?xt=urn:btih:adf60a6e48e00d53c5c20836ed909db423b335cf&amp;dn=Khelein+Hum+Jee+Jaan+Sey+2010+DvDScr+x264+400Mb+-+Henry&amp;tr=udp%3A%2F%2Ftracker.openbittorrent.com%3A80&amp;tr=udp%3A%2F%2Fopen.demonii.com%3A1337&amp;tr=udp%3A%2F%2Ftracker.coppersurfer.tk%3A6969&amp;tr=udp%3A%2F%2Fexodus.desync.com%3A6969","seeders":0,"leechers":0,"uploader":"imsingh","files":2,"time":1291831732,"description":"\nEXCLUSIVE DHAMAKA FROM Henry\n\n\n-----------------------------------------------------------------------------------\nFormat                           : Matroska\nFile size                        : 397 MiB\nDuration                         : 2h 38mn\nOverall bit rate                 : 351 Kbps\nMovie name                       : Khelein Hum Jee Jaan Sey 2010 DvDScr x264 - Henry \nEncoded date                     : UTC 2010-12-08 16:25:46\nWriting application              : mkvmerge v4.2.0 ('No Talking') built on Jul 28 2010 18:38:23\nWriting library                  : libebml v1.0.0 + libmatroska v1.0.0\n-----------------------------------------------------------------------------------\nVideo\nID                               : 1\nFormat                           : AVC\nFormat/Info                      : Advanced Video Codec\nFormat profile                   : &lt;a class=&quot;__cf_email__&quot; href=&quot;/cdn-cgi/l/email-protection&quot; data-cfemail=&quot;6f270608072f235d415e&quot;&gt;[email&amp;#160;protected]&lt;/a&gt;&lt;script cf-hash='f9e31' type=&quot;text/javascript&quot;&gt;\n/* &lt;![CDATA[ */!function(){try{var t=&quot;currentScript&quot;in document?document.currentScript:function(){for(var t=document.getElementsByTagName(&quot;script&quot;),e=t.length;e--;)if(t[e].getAttribute(&quot;cf-hash&quot;))return t[e]}();if(t&amp;&amp;t.previousSibling){var e,r,n,i,c=t.previousSibling,a=c.getAttribute(&quot;data-cfemail&quot;);if(a){for(e=&quot;&quot;,r=parseInt(a.substr(0,2),16),n=2;a.length-n;n+=2)i=parseInt(a.substr(n,2),16)^r,e+=String.fromCharCode(i);e=document.createTextNode(e),c.parentNode.replaceChild(e,c)}}}catch(u){}}();/* ]]&gt; */&lt;/script&gt;\nFormat settings, CABAC           : Yes\nFormat settings, ReFrames        : 4 frames\nFormat settings, GOP             : N=1\nMuxing mode                      : Container profile=&lt;a class=&quot;__cf_email__&quot; href=&quot;/cdn-cgi/l/email-protection&quot; data-cfemail=&quot;6633080d0809110826544857&quot;&gt;[email&amp;#160;protected]&lt;/a&gt;&lt;script cf-hash='f9e31' type=&quot;text/javascript&quot;&gt;\n/* &lt;![CDATA[ */!function(){try{var t=&quot;currentScript&quot;in document?document.currentScript:function(){for(var t=document.getElementsByTagName(&quot;script&quot;),e=t.length;e--;)if(t[e].getAttribute(&quot;cf-hash&quot;))return t[e]}();if(t&amp;&amp;t.previousSibling){var e,r,n,i,c=t.previousSibling,a=c.getAttribute(&quot;data-cfemail&quot;);if(a){for(e=&quot;&quot;,r=parseInt(a.substr(0,2),16),n=2;a.length-n;n+=2)i=parseInt(a.substr(n,2),16)^r,e+=String.fromCharCode(i);e=document.createTextNode(e),c.parentNode.replaceChild(e,c)}}}catch(u){}}();/* ]]&gt; */&lt;/script&gt;\nCodec ID                         : V_MPEG4/ISO/AVC\nDuration                         : 2h 38mn\nBit rate                         : 274 Kbps\nWidth                            : 576 pixels\nHeight                           : 288 pixels\nDisplay aspect ratio             : 2.000\nFrame rate                       : 25.000 fps\nColor space                      : YUV\nChroma subsampling               : 4:2:0\nBit depth                        : 8 bits\nScan type                        : Progressive\nBits/(Pixel*Frame)               : 0.066\nStream size                      : 304 MiB (77%)\nWriting library                  : x264 \n-----------------------------------------------------------------------------------\nAudio\nID                               : 2\nFormat                           : MPEG Audio\nFormat version                   : Version 2\nFormat profile                   : Layer 3\nMode                             : Joint stereo\nMode extension                   : MS Stereo\nCodec ID                         : A_MPEG/L3\nCodec ID/Hint                    : MP3\nDuration                         : 2h 38mn\nBit rate mode                    : Variable\nBit rate                         : 75.0 Kbps\nNominal bit rate                 : 128 Kbps\nChannel(s)                       : 2 channels\nSampling rate                    : 24.0 KHz\nStream size                      : 84.8 MiB (21%)\nWriting library                  : LAME3.98r\nEncoding settings                : -m j -V 4 -q 2 -lowpass 12 --abr 128\n\nScreens: &lt;a href=&quot;\nhttp://leetleech.org/images/60424068330094445106.png&quot; rel=&quot;nofollow&quot; target=&quot;_NEW&quot;&gt;\nhttp://leetleech.org/images/60424068330094445106.png&lt;/a&gt; &lt;a href=&quot;\nhttp://leetleech.org/images/61204110895194124642.png&quot; rel=&quot;nofollow&quot; target=&quot;_NEW&quot;&gt;\nhttp://leetleech.org/images/61204110895194124642.png&lt;/a&gt; &lt;a href=&quot;\nhttp://leetleech.org/images/26427939815179548285.png&quot; rel=&quot;nofollow&quot; target=&quot;_NEW&quot;&gt;\nhttp://leetleech.org/images/26427939815179548285.png&lt;/a&gt; &lt;a href=&quot;\nhttp://leetleech.org/images/26283905658685714716.png&quot; rel=&quot;nofollow&quot; target=&quot;_NEW&quot;&gt;\nhttp://leetleech.org/images/26283905658685714716.png&lt;/a&gt; &lt;a href=&quot;\nhttp://leetleech.org/images/21403950635041860661.png&quot; rel=&quot;nofollow&quot; target=&quot;_NEW&quot;&gt;\nhttp://leetleech.org/images/21403950635041860661.png&lt;/a&gt; &lt;a href=&quot;\nhttp://leetleech.org/images/16883769105154683474.png&quot; rel=&quot;nofollow&quot; target=&quot;_NEW&quot;&gt;\nhttp://leetleech.org/images/16883769105154683474.png&lt;/a&gt; &lt;a href=&quot;\nhttp://leetleech.org/images/96630486352616063186.png&quot; rel=&quot;nofollow&quot; target=&quot;_NEW&quot;&gt;\nhttp://leetleech.org/images/96630486352616063186.png&lt;/a&gt; &lt;a href=&quot;\nhttp://leetleech.org/images/64456235371532086132.png&quot; rel=&quot;nofollow&quot; target=&quot;_NEW&quot;&gt;\nhttp://leetleech.org/images/64456235371532086132.png&lt;/a&gt;\n\nSample Include In Torrent\n\nkeep Seeding\nThnx","torrent":{"xt":"urn:btih:adf60a6e48e00d53c5c20836ed909db423b335cf","amp;dn":"Khelein+Hum+Jee+Jaan+Sey+2010+DvDScr+x264+400Mb+-+Henry","amp;tr":["udp%3A%2F%2Ftracker.openbittorrent.com%3A80","udp%3A%2F%2Fopen.demonii.com%3A1337","udp%3A%2F%2Ftracker.coppersurfer.tk%3A6969","udp%3A%2F%2Fexodus.desync.com%3A6969"],"infoHash":"adf60a6e48e00d53c5c20836ed909db423b335cf","infoHashBuffer":{"type":"Buffer","data":[173,246,10,110,72,224,13,83,197,194,8,54,237,144,157,180,35,179,53,207]},"announce":[],"urlList":[]}}